<?xml version="1.0" encoding="UTF-8" standalone="no"?>
<svg
   viewBox="0 0 60 60.000957"
   x="0px"
   y="0px"
   version="1.1"
   id="svg10"
   sodipodi:docname="location.svg"
   width="60"
   height="60.000957"
   inkscape:version="1.1.1 (3bf5ae0d25, 2021-09-20)"
   xmlns:inkscape="http://www.inkscape.org/namespaces/inkscape"
   xmlns:sodipodi="http://sodipodi.sourceforge.net/DTD/sodipodi-0.dtd"
   xmlns="http://www.w3.org/2000/svg"
   xmlns:svg="http://www.w3.org/2000/svg">
  <defs
     id="defs14">
    <clipPath
       clipPathUnits="userSpaceOnUse"
       id="clipPath280">
      <rect
         style="opacity:0.5"
         id="rect282"
         width="63.194752"
         height="64.134651"
         x="0.43978584"
         y="0.2510128" />
    </clipPath>
  </defs>
  <sodipodi:namedview
     id="namedview12"
     pagecolor="#505050"
     bordercolor="#eeeeee"
     borderopacity="1"
     inkscape:pageshadow="0"
     inkscape:pageopacity="0"
     inkscape:pagecheckerboard="0"
     showgrid="false"
     inkscape:zoom="6.65"
     inkscape:cx="78.721805"
     inkscape:cy="26.090226"
     inkscape:window-width="1366"
     inkscape:window-height="699"
     inkscape:window-x="0"
     inkscape:window-y="0"
     inkscape:window-maximized="1"
     inkscape:current-layer="svg10" />
  <g
     id="g4"
     clip-path="url(#clipPath280)"
     transform="translate(-2,-1.9990406)">
    <path
       d="M 59.5,53 H 59 A 3,3 0 0 0 57,50.184 V 35.858 A 4,4 0 0 0 60,32 V 19 A 1,1 0 0 0 59,18 H 52 V 13 A 1,1 0 0 0 51,12 H 45.407 A 13.987,13.987 0 0 0 18.593,12 H 13 a 1,1 0 0 0 -1,1 v 5 H 5 a 1,1 0 0 0 -1,1 v 13 a 4,4 0 0 0 3,3.858 V 50.184 A 3,3 0 0 0 5,53 H 4.5 A 2.495,2.495 0 0 0 2.189,56.447 0.974,0.974 0 0 0 2,57 v 4 a 1,1 0 0 0 1,1 h 58 a 1,1 0 0 0 1,-1 V 57 A 0.972,0.972 0 0 0 61.811,56.447 2.495,2.495 0 0 0 59.5,53 Z m -1.777,2 H 59.5 a 0.5,0.5 0 0 1 0,1 h -7 a 0.5,0.5 0 0 1 0,-1 h 1.777 A 1,1 0 0 0 55.142,53.5 0.984,0.984 0 0 1 55,53 a 1,1 0 0 1 2,0 0.984,0.984 0 0 1 -0.142,0.5 1,1 0 0 0 0.865,1.5 z M 17,45 h -4 a 5.009,5.009 0 0 1 4,-4.9 z m 2,-4.9 A 5.009,5.009 0 0 1 23,45 H 19 Z M 18,38 a 7.008,7.008 0 0 0 -7,7 v 8 A 3,3 0 0 0 9,50.184 V 35.858 a 3.976,3.976 0 0 0 2,-1.24 3.947,3.947 0 0 0 6,0 3.947,3.947 0 0 0 6,0 3.947,3.947 0 0 0 6,0 3.947,3.947 0 0 0 6,0 3.947,3.947 0 0 0 6,0 3.947,3.947 0 0 0 6,0 3.947,3.947 0 0 0 6,0 3.976,3.976 0 0 0 2,1.24 V 50.184 A 3,3 0 0 0 53,53 V 39 A 1,1 0 0 0 52,38 H 28 a 1,1 0 0 0 -1,1 v 16 a 1,1 0 0 0 1,1 H 50.051 A 2.414,2.414 0 0 0 50.189,56.447 0.974,0.974 0 0 0 50,57 v 3 H 25 V 45 A 7.008,7.008 0 0 0 18,38 Z M 6,26 h 52 v 2 H 6 Z m 46,6 a 2,2 0 0 1 -4,0 v -2 h 4 z m -6,0 a 2,2 0 0 1 -4,0 v -2 h 4 z m -6,0 a 2,2 0 0 1 -4,0 v -2 h 4 z m -6,0 a 2,2 0 0 1 -4,0 v -2 h 4 z m -6,0 a 2,2 0 0 1 -4,0 v -2 h 4 z m -6,0 a 2,2 0 0 1 -4,0 v -2 h 4 z M 12,30 h 4 v 2 a 2,2 0 0 1 -4,0 z m 37,24 v -6 h -2 v 6 h -6 v -3 h 4 V 49 H 35 v 2 h 4 v 3 h -6 v -6 h -2 v 6 H 29 V 40 h 10 v 1.184 A 3,3 0 0 0 37,44 v 1 a 1,1 0 0 0 1,1 h 4 a 1,1 0 0 0 1,-1 V 44 A 3,3 0 0 0 41,41.184 V 40 H 51 V 53.513 A 2.5,2.5 0 0 0 50.513,54 Z M 41,44 h -2 a 1,1 0 0 1 2,0 z M 58,32 a 2,2 0 0 1 -4,0 v -2 h 4 z M 14,14 h 5.361 a 1,1 0 0 0 0.973,-0.77 11.987,11.987 0 0 1 23.332,0 1,1 0 0 0 0.973,0.77 H 50 v 4 H 36 v -2 a 1,1 0 0 0 0.447,-0.105 l 2,-1 A 1,1 0 0 0 39,14 V 8 h -2 v 5.382 l -1,0.5 V 8 h -2 v 5.882 l -1,-0.5 V 8 h -2 v 6 a 1,1 0 0 0 0.553,0.895 l 2,1 A 1,1 0 0 0 34,16 v 2 H 27 V 15.763 A 4.024,4.024 0 0 0 29,12 C 29,9.757 27.683,8 26,8 24.317,8 23,9.757 23,12 a 4.024,4.024 0 0 0 2,3.763 V 18 H 14 Z m 11,-2 c 0,-1.221 0.592,-2 1,-2 0.408,0 1,0.779 1,2 0,1.221 -0.592,2 -1,2 -0.408,0 -1,-0.779 -1,-2 z M 6,20 h 52 v 4 H 6 Z m 0,12 v -2 h 4 v 2 A 2,2 0 0 1 6,32 Z M 4.5,55 H 6.277 A 1,1 0 0 0 7.142,53.5 0.984,0.984 0 0 1 7,53 1,1 0 0 1 9,53 0.984,0.984 0 0 1 8.858,53.5 1,1 0 0 0 9.723,55 H 11.5 a 0.5,0.5 0 0 1 0,1 h -7 a 0.5,0.5 0 0 1 0,-1 z M 8,60 H 4 v -2 h 8 v 2 z m 6,0 V 57 A 0.972,0.972 0 0 0 13.811,56.447 2.472,2.472 0 0 0 13,53.513 V 47 h 10 v 13 z m 46,0 h -8 v -2 h 8 z"
       id="path2" />
  </g>
</svg>
