<?xml version="1.0" encoding="UTF-8" standalone="no"?>
<svg
   version="1.1"
   x="0px"
   y="0px"
   viewBox="0 0 93.056496 92.612"
   enable-background="new 0 0 96 96"
   xml:space="preserve"
   id="svg127"
   sodipodi:docname="noun_cottage_2247385.svg"
   inkscape:version="1.1.1 (3bf5ae0d25, 2021-09-20)"
   width="93.056496"
   height="92.612"
   xmlns:inkscape="http://www.inkscape.org/namespaces/inkscape"
   xmlns:sodipodi="http://sodipodi.sourceforge.net/DTD/sodipodi-0.dtd"
   xmlns="http://www.w3.org/2000/svg"
   xmlns:svg="http://www.w3.org/2000/svg"><defs
     id="defs131"><clipPath
       clipPathUnits="userSpaceOnUse"
       id="clipPath149"><rect
         style="opacity:0.5;fill:#0000ff;fill-rule:evenodd"
         id="rect151"
         width="93.482574"
         height="94.114449"
         x="0.5739246"
         y="0.19164917" /></clipPath></defs><sodipodi:namedview
     id="namedview129"
     pagecolor="#505050"
     bordercolor="#eeeeee"
     borderopacity="1"
     inkscape:pageshadow="0"
     inkscape:pageopacity="0"
     inkscape:pagecheckerboard="0"
     showgrid="false"
     inkscape:zoom="4.1916667"
     inkscape:cx="45.685884"
     inkscape:cy="39.244532"
     inkscape:window-width="1366"
     inkscape:window-height="699"
     inkscape:window-x="0"
     inkscape:window-y="0"
     inkscape:window-maximized="1"
     inkscape:current-layer="svg127"
     fit-margin-top="0"
     fit-margin-left="0"
     fit-margin-right="0"
     fit-margin-bottom="0" /><g
     id="g121"
     clip-path="url(#clipPath149)"
     transform="matrix(1,0,0,0.98984736,-1,-0.73664426)"><path
       d="m 35.0518,6.5876 1.9379,0.0047 c 0.028,-0.302 0.3467,-2.9532 2.9432,-2.9532 v -1.945 c -1.9318,0 -3.1659,0.9151 -3.912,2.0134 C 35.2754,2.6091 34.0412,1.6941 32.1094,1.6941 v 1.9451 c 2.5967,-1e-4 2.9149,2.6506 2.9424,2.9484 z"
       id="path87" /><path
       d="m 28.5812,12.4925 c -0.7816,-1.1967 -2.098,-2.2096 -4.186,-2.2096 v 1.9451 c 2.8416,0 3.1868,2.8919 3.2168,3.2172 l 1.9379,0.0043 c 0.0304,-0.3296 0.3756,-3.2215 3.2168,-3.2215 v -1.945 c -2.088,0 -3.4043,1.0129 -4.1855,2.2095 z"
       id="path89" /><path
       d="m 47.215,16.7341 c 0.0166,-0.1899 0.4601,-4.6471 4.6684,-4.6471 v -1.9451 c -2.9361,0 -4.6817,1.5675 -5.6376,3.2946 -0.9559,-1.7271 -2.702,-3.2946 -5.6381,-3.2946 v 1.9451 c 4.2088,0 4.6523,4.4571 4.6689,4.6437 z"
       id="path91" /><path
       d="M 54.8196,43.4026 H 41.8804 v 12.9392 h 12.9392 z m -1.9451,5.4971 h -3.552 v -3.552 h 3.552 z m -5.4971,-3.552 v 3.552 h -3.552 v -3.552 z m -3.552,5.497 h 3.552 v 3.552 h -3.552 z m 5.4971,3.552 v -3.552 h 3.552 v 3.552 z"
       id="path93" /><rect
       x="36.8088"
       y="63.215"
       width="3.2595"
       height="1.9450999"
       id="rect95" /><polygon
       points="8.7866,63.8029 14.5522,53.2746 7.9084,53.2585 11.7243,46.2926 17.0586,46.2926 17.0586,44.3476 12.7898,44.3476 17.637,35.4994 10.8867,35.4837 20.5142,17.9065 26.342,28.6233 22.1648,28.6233 22.1648,30.5684 27.3997,30.5684 30.1032,35.5398 23.3287,35.5236 27.5902,43.3618 29.2988,42.4329 26.6044,37.4763 33.3788,37.4924 20.5208,13.8464 7.6073,37.4212 14.3575,37.4368 4.6299,55.1959 11.2738,55.2121 1,73.9731 13.6628,74.0069 13.6676,72.0618 4.2775,72.0366 7.7214,65.748 16.485,65.748 16.485,63.8029 "
       id="polygon97" /><path
       d="m 79.969,35.9287 -6.8827,12.5607 1.7057,0.9345 0.453,-0.8267 h 4.5535 v -1.9451 h -3.4877 l 3.6506,-6.6624 6.8614,12.6305 -5.1347,-0.0095 4.5748,8.4018 h -5.0444 v 1.9451 h 6.1035 l 1.7081,3.137 -5.0554,-0.0095 4.1156,7.5642 H 77.0894 v 1.9451 h 12.059 l 2.5788,4.7396 H 80.8148 l 0.1168,1.0775 c 0.3471,3.2049 1.144,7.5618 2.391,10.9495 h -6.8671 c 1.2465,-3.3858 2.0438,-7.7432 2.3914,-10.9495 l 0.1168,-1.0775 h -7.6112 v 1.9451 h 5.4311 c -0.4065,3.0917 -1.2294,7.1438 -2.4244,10.0819 H 68.7393 V 60.6071 H 79.0981 L 48.35,21.7149 17.6018,60.6071 h 10.3493 v 8.0291 l -13.7792,6.5569 0.8358,1.7561 1.6592,-0.7895 V 92.361 H 2.6388 v 1.9451 c 18.5404,0 71.0676,0 91.4177,0 V 92.361 H 85.4188 C 84.2231,89.4214 83.401,85.3696 82.9949,82.2791 H 95 l -7.7498,-14.2432 5.0573,0.0095 -7.3419,-13.4839 5.1309,0.0095 z M 56.3034,34.911 H 40.3965 l 2.1891,-2.769 h 11.5286 z m 1.5378,1.9451 2.1963,2.778 h -23.375 l 2.1963,-2.778 z M 52.5765,30.197 H 44.1234 L 48.35,24.851 Z M 21.6192,58.662 23.9374,55.7297 H 39.0463 V 53.7846 H 25.4752 l 2.1963,-2.778 h 11.3749 v -1.9451 h -9.8372 l 2.1891,-2.769 h 7.648 V 44.3474 H 32.936 l 2.1887,-2.7685 h 26.4504 l 2.1887,2.7685 h -6.1103 v 1.9451 h 7.648 l 2.1891,2.769 h -9.8372 v 1.9451 h 11.3749 l 2.1963,2.778 h -13.571 v 1.9451 h 15.1089 l 2.3182,2.9323 c -36.3523,0 -16.7952,0 -53.4615,0 z m 6.3319,33.699 H 18.6119 V 75.2342 l 9.3392,-4.4436 z m 14.2565,0 V 76.3651 c 0,-3.3868 2.7557,-6.1419 6.1424,-6.1419 3.3868,0 6.1424,2.7552 6.1424,6.1419 V 92.361 Z m 14.2298,0 v -9.6403 h 7.0921 V 80.7756 H 56.4374 V 76.867 H 60.469 V 74.9219 H 56.301 C 55.6176,71.15 52.3161,68.278 48.3499,68.278 c -3.9662,0 -7.2677,2.872 -7.9511,6.6439 h -4.4624 v 1.9451 h 4.326 V 92.361 H 29.8962 v -3.7871 h 7.3282 v -1.9451 h -7.3282 v -3.9082 h 8.5495 V 80.7755 H 29.8962 V 76.867 H 32.886 V 74.9219 H 29.8962 V 71.0137 H 40.98 V 69.0686 H 29.8962 V 67.7105 65.16 h 4.8579 v -1.945 h -4.8579 v -2.608 h 36.8981 v 2.608 H 42.0832 v 1.9451 h 24.7112 v 3.9086 h -9.844 v 1.9451 h 9.844 v 3.9082 h -3.4836 v 1.9451 h 3.4836 v 9.7618 H 58.58 v 1.9451 h 8.2143 v 3.7871 H 56.4374 Z"
       id="path99" /><rect
       x="19.6105"
       y="63.802898"
       width="3.0425"
       height="1.9450999"
       id="rect101" /><rect
       x="19.6105"
       y="44.347599"
       width="3.0425"
       height="1.9450999"
       id="rect103" /><rect
       x="16.5704"
       y="28.623301"
       width="3.0425"
       height="1.9450999"
       id="rect105" /><rect
       x="76.113998"
       y="4.5162001"
       width="1.9450999"
       height="3.9375999"
       id="rect107" /><rect
       x="82.801903"
       y="7.2859998"
       transform="matrix(-0.7071,-0.7071,0.7071,-0.7071,136.4676,75.0365)"
       width="1.9448"
       height="3.9377"
       id="rect109" /><rect
       x="84.575699"
       y="14.9699"
       width="3.9375999"
       height="1.9450999"
       id="rect111" /><rect
       x="81.805496"
       y="21.6576"
       transform="matrix(-0.707,-0.7072,0.7072,-0.707,127.0035,97.8729)"
       width="3.9377"
       height="1.9448"
       id="rect113" /><rect
       x="68.430397"
       y="8.2825003"
       transform="matrix(0.707,0.7072,-0.7072,0.707,27.1684,-47.0728)"
       width="3.9377"
       height="1.9448"
       id="rect115" /><path
       d="m 62.9787,17.3105 h -1.4982 c -2.2304,0 -4.0454,1.8149 -4.0454,4.0454 0,2.2267 1.8149,4.0378 4.0454,4.0378 h 5.5189 v -1.9451 h -5.5189 c -1.1582,0 -2.1003,-0.9388 -2.1003,-2.0927 0,-1.1582 0.9421,-2.1003 2.1003,-2.1003 h 3.1854 l 0.0936,-0.8681 c 0.2503,-2.3164 2.1967,-4.063 4.5274,-4.063 2.3344,0 4.2843,1.7466 4.535,4.063 l 0.094,0.8681 h 3.1773 c 1.1582,0 2.1003,0.9421 2.1003,2.1003 0,1.1539 -0.9421,2.0927 -2.1003,2.0927 h -3.1697 v 1.9451 h 3.1697 c 2.2305,0 4.0454,-1.8111 4.0454,-4.0378 0,-0.5338 -0.1096,-1.0411 -0.2983,-1.5081 1.0552,-1.0144 1.6721,-2.4184 1.6721,-3.9082 0,-2.9917 -2.4337,-5.4254 -5.4254,-5.4254 -1.9632,0 -3.7017,1.0396 -4.6611,2.6679 -0.9332,-0.5127 -2.0041,-0.8026 -3.1391,-0.8026 -3.0281,0 -5.6015,2.0662 -6.3081,4.931 z m 14.1084,-4.8512 c 1.9189,0 3.4803,1.5614 3.4803,3.4803 0,0.8699 -0.3267,1.6944 -0.8946,2.3264 -0.7025,-0.5875 -1.5945,-0.9555 -2.5795,-0.9555 h -1.4911 c -0.2787,-1.1295 -0.8558,-2.1266 -1.6291,-2.9301 0.5852,-1.1538 1.7929,-1.9211 3.114,-1.9211 z"
       id="path117" /><rect
       x="69.698097"
       y="23.4487"
       width="2.1515999"
       height="1.9450999"
       id="rect119" /></g></svg>
